<?xml version="1.0" encoding="utf-8"?>
<!-- Generator: Adobe Illustrator 26.0.0, SVG Export Plug-In . SVG Version: 6.00 Build 0)  -->
<svg version="1.1" xmlns="http://www.w3.org/2000/svg" xmlns:xlink="http://www.w3.org/1999/xlink" x="0px" y="0px"
	 viewBox="0 0 204.1 204.1" style="enable-background:new 0 0 204.1 204.1;" xml:space="preserve">
<style type="text/css">
	.st0{fill:#FFFFFF;stroke:#000000;stroke-miterlimit:10;}
	.st1{fill:#FFFFFF;stroke:#000000;stroke-width:4;stroke-miterlimit:10;}
</style>
<g id="Layer_1">
	<circle cx="102" cy="102" r="102"/>
	<path class="st0" d="M170.4,91.4c0-9.8-3.4-19.2-9.6-26.8c2.1-8.7,1.4-17.8-1.9-26.1c-0.7-1.6-2-2.8-3.6-3.3
		c-2.3-0.8-11.2-2.3-29.1,9.4c-7.7-2-15.7-3-23.7-2.9c-8-0.1-16,0.8-23.7,2.9c-18.5-11.9-28-10-30-9.4c-1.7,0.5-3,1.8-3.6,3.4
		c-3.3,8.3-4,17.4-1.9,26c-6.4,7.6-9.7,17.2-9.5,27c0,36.8,21.1,48,40.4,51.9c-1,2.4-1.7,5-2,7.6c0,0.3,0,0.6,0,0.8V162
		c-17.6,1.5-21.4-8.8-21.7-10c-1.9-5.9-2.8-14.8-6.4-15.6c-7.7-1.8-7.4,10.6-4.8,19.2c2.3,7.6,11.9,19.5,32.8,18.2v9.6
		c0,3.2,2.6,5.8,5.8,5.8s5.8-2.6,5.8-5.8v-31.1c0.4-3.4,1.9-6.6,4.2-9.1c2.3-2.2,2.5-5.9,0.3-8.2c-0.9-1-2.2-1.7-3.6-1.8
		c-20.3-2.4-39.1-9.1-39.1-41.9c-0.3-8,2.8-15.8,8.5-21.4c1.5-1.7,2.1-4,1.3-6.2c-2-5.7-2.1-11.9-0.4-17.7
		c7.2,1.6,13.9,4.8,19.7,9.2c1.5,1,3.4,1.3,5.1,0.7c7.4-2.3,15.1-3.3,22.9-3.1c7.7-0.2,15.4,0.8,22.8,3.1c1.7,0.6,3.6,0.3,5.1-0.7
		c5.6-4.3,12-7.4,18.9-9.2c1.7,5.8,1.5,12.1-0.4,17.8c-0.7,2-0.2,4.1,1.1,5.7c5.5,5.9,8.6,13.6,8.8,21.7c0,32.7-19.8,39.5-39.1,41.9
		c-3.2,0.4-5.5,3.2-5.1,6.4c0.2,1.6,1,3.1,2.3,4c2.1,1.6,4.5,6,4.5,13.3v26.4c0,3.2,2.6,5.8,5.8,5.8s5.8-2.6,5.8-5.8v-26.4
		c0.1-4.6-0.8-9.2-2.5-13.6C146.2,140,170.4,129.7,170.4,91.4z"/>
	<path class="st1" d="M102,92.8L102,92.8c-4.9,0-8.9-4-8.9-8.9v-63c0-4.9,4-8.9,8.9-8.9h0c4.9,0,8.9,4,8.9,8.9v63
		C110.9,88.8,106.9,92.8,102,92.8z"/>
	<circle class="st0" cx="102" cy="106.5" r="6.9"/>
</g>
<g id="Layer_2">
</g>
<g id="Layer_3">
</g>
</svg>
