<?xml version="1.0" encoding="utf-8"?>
<!-- Generator: Adobe Illustrator 15.0.0, SVG Export Plug-In . SVG Version: 6.00 Build 0)  -->
<!DOCTYPE svg PUBLIC "-//W3C//DTD SVG 1.1//EN" "http://www.w3.org/Graphics/SVG/1.1/DTD/svg11.dtd">
<svg version="1.1" id="Layer_1" xmlns="http://www.w3.org/2000/svg" xmlns:xlink="http://www.w3.org/1999/xlink" x="0px" y="0px"
	 width="612px" height="792px" viewBox="0 0 612 792" enable-background="new 0 0 612 792" xml:space="preserve">
<circle cx="305.85" cy="395.85" r="305.85"/>
<path fill="#FFFFFF" stroke="#000000" stroke-miterlimit="10" d="M510.949,364.065c0-29.385-10.194-57.572-28.785-80.36
	c6.297-26.087,4.197-53.374-5.697-78.262c-2.1-4.797-5.997-8.396-10.795-9.895c-6.896-2.399-33.584-6.896-87.258,28.186
	c-23.088-5.997-47.076-8.996-71.064-8.696c-23.989-0.3-47.977,2.399-71.065,8.696c-55.473-35.683-83.959-29.985-89.956-28.186
	c-5.097,1.499-8.996,5.397-10.794,10.195c-9.896,24.888-11.994,52.175-5.697,77.962c-19.191,22.789-29.086,51.575-28.486,80.96
	c0,110.346,63.269,143.929,121.141,155.624c-2.999,7.196-5.097,14.992-5.997,22.789c0,0.899,0,1.799,0,2.398v30.285
	c-52.774,4.498-64.168-26.387-65.068-29.985c-5.697-17.691-8.396-44.378-19.19-46.777c-23.089-5.396-22.189,31.785-14.393,57.572
	c6.896,22.789,35.683,58.472,98.352,54.573v28.786c0,9.595,7.796,17.392,17.392,17.392s17.392-7.797,17.392-17.392v-93.255
	c1.199-10.194,5.697-19.79,12.594-27.286c6.896-6.597,7.496-17.691,0.899-24.588c-2.699-2.999-6.597-5.098-10.794-5.397
	c-60.87-7.196-117.243-27.287-117.243-125.639c-0.899-23.988,8.396-47.376,25.487-64.168c4.498-5.098,6.297-11.994,3.898-18.591
	c-5.997-17.092-6.297-35.683-1.2-53.074c21.589,4.798,41.68,14.393,59.071,27.586c4.498,2.999,10.195,3.898,15.292,2.099
	c22.189-6.896,45.278-9.895,68.667-9.295c23.089-0.6,46.177,2.399,68.366,9.295c5.098,1.799,10.795,0.9,15.293-2.099
	c16.791-12.894,35.982-22.189,56.672-27.586c5.098,17.392,4.498,36.282-1.199,53.374c-2.1,5.997-0.6,12.294,3.298,17.092
	c16.492,17.691,25.788,40.78,26.388,65.068c0,98.052-59.371,118.442-117.243,125.639c-9.595,1.199-16.491,9.595-15.292,19.19
	c0.6,4.798,2.998,9.295,6.896,11.994c6.297,4.798,13.493,17.991,13.493,39.881v79.161c0,9.595,7.796,17.391,17.392,17.391
	s17.392-7.796,17.392-17.391V560.17c0.3-13.794-2.398-27.587-7.496-40.78C438.385,509.794,510.949,478.909,510.949,364.065z"/>
<path fill="#FFFFFF" stroke="#000000" stroke-width="11" stroke-miterlimit="10" d="M305.686,368.264L305.686,368.264
	c-14.511,0-26.356-11.994-26.356-26.687V152.669c0-14.693,11.846-26.687,26.356-26.687l0,0c14.51,0,26.356,11.994,26.356,26.687
	v188.907C332.042,356.27,320.196,368.264,305.686,368.264z"/>
<circle fill="#FFFFFF" cx="305.85" cy="409.344" r="20.69"/>
<g id="Layer_2">
</g>
<g id="Layer_3">
</g>
</svg>
